<svg width="186" height="147" viewBox="0 0 186 147" fill="none" xmlns="http://www.w3.org/2000/svg">
<path d="M23.12 127.928C23.12 128.36 22.88 128.6 22.448 128.6H18.224C17.792 128.6 17.552 128.36 17.552 127.928V115.448C15.44 116.264 13.328 116.984 11.408 117.56C11.312 117.608 11.264 117.608 11.168 117.608C10.88 117.608 10.688 117.368 10.64 117.032L9.872 112.136V111.992C9.872 111.656 10.064 111.464 10.4 111.368C12.608 110.792 15.104 110.024 17.552 109.208V99.464H15.536C15.296 101.576 14.96 103.592 14.528 105.272C14.432 105.704 14.096 105.848 13.664 105.704L10.064 104.408C9.68 104.264 9.536 104.024 9.632 103.592C10.688 99.608 11.024 94.808 11.024 90.584V88.952C11.024 88.52 11.312 88.28 11.744 88.328L15.488 88.664C15.92 88.712 16.112 88.904 16.112 89.336C16.112 90.728 16.112 92.312 16.016 93.944H17.552V85.496C17.552 85.064 17.792 84.824 18.224 84.824H22.448C22.88 84.824 23.12 85.064 23.12 85.496V93.944H26.096C26.528 93.944 26.768 94.184 26.768 94.616V98.456C26.864 98.36 27.008 98.312 27.2 98.312H36.704V94.136H28.496C28.064 94.136 27.824 93.896 27.824 93.464V89.336C27.824 88.904 28.064 88.664 28.496 88.664H36.704V85.496C36.704 85.064 36.944 84.824 37.376 84.824H42.08C42.512 84.824 42.752 85.064 42.752 85.496V88.664H51.872C52.304 88.664 52.544 88.904 52.544 89.336V93.464C52.544 93.896 52.304 94.136 51.872 94.136H42.752V98.312H53.408C53.84 98.312 54.08 98.552 54.08 98.984V103.112C54.08 103.544 53.84 103.784 53.408 103.784H49.664V107.672H53.072C53.504 107.672 53.744 107.912 53.744 108.344V112.568C53.744 113 53.504 113.24 53.072 113.24H49.664V121.352C49.664 126.248 48.944 128.6 40.976 128.6H39.536C39.152 128.6 38.864 128.408 38.72 128.024L37.136 123.704C37.088 123.608 37.088 123.512 37.088 123.416C37.088 123.08 37.328 122.888 37.76 122.936C38.24 122.936 38.672 122.984 39.104 122.984C43.184 122.984 43.712 121.928 43.712 120.248V113.24H28.064C27.632 113.24 27.392 113 27.392 112.568V108.344C27.392 107.912 27.632 107.672 28.064 107.672H43.712V103.784H27.2C26.768 103.784 26.528 103.544 26.528 103.112V99.32C26.432 99.416 26.288 99.464 26.096 99.464H23.12V107.432C24.128 107.048 25.088 106.616 25.904 106.232C26.048 106.184 26.144 106.136 26.288 106.136C26.528 106.136 26.672 106.328 26.672 106.712V111.224C26.672 111.608 26.528 111.896 26.192 112.04C25.28 112.472 24.272 112.952 23.12 113.432V127.928ZM34.496 123.512C33.248 121.16 31.232 118.328 29.264 116.552C29.12 116.408 29.024 116.264 29.024 116.12C29.024 115.928 29.168 115.784 29.408 115.64L33.344 113.672C33.488 113.576 33.632 113.576 33.776 113.576C33.968 113.576 34.16 113.624 34.304 113.768C36.224 115.448 38.576 118.184 39.872 120.536C39.92 120.68 39.968 120.776 39.968 120.92C39.968 121.112 39.824 121.304 39.584 121.448L35.408 123.8C35.264 123.848 35.168 123.896 35.024 123.896C34.832 123.896 34.64 123.752 34.496 123.512ZM71.648 117.08C71.168 117.08 70.928 116.84 70.928 116.36V113.24C70.928 112.76 71.168 112.52 71.648 112.52H75.68V108.872H70.784C70.304 108.872 70.064 108.632 70.064 108.152V104.6C70.064 104.12 70.304 103.88 70.784 103.88H84.656L84.56 103.736C84.464 103.592 84.416 103.4 84.416 103.256C84.416 103.064 84.464 102.92 84.56 102.728C84.896 102.152 85.184 101.576 85.52 100.952H70.496C69.584 102.488 68.624 104.024 67.712 105.368V127.88C67.712 128.36 67.472 128.6 66.992 128.6H62.72C62.24 128.6 62 128.36 62 127.88V112.088C61.376 112.808 60.704 113.432 60.032 114.056C59.888 114.2 59.696 114.296 59.552 114.296C59.36 114.296 59.168 114.152 59.072 113.816L57.488 109.112C57.44 108.968 57.392 108.872 57.392 108.728C57.392 108.536 57.488 108.344 57.728 108.152C61.04 105.512 64.208 101.24 66.128 97.544C66.272 97.256 66.464 97.112 66.656 97.112C66.8 97.112 66.944 97.16 67.088 97.256L69.776 98.648V88.136C69.776 87.656 70.016 87.416 70.496 87.416H73.376C73.856 87.416 74.096 87.656 74.096 88.136V95.864H75.872V85.688C75.872 85.208 76.112 84.968 76.592 84.968H79.808C80.288 84.968 80.528 85.208 80.528 85.688V95.864H82.352V88.088C82.352 87.608 82.592 87.368 83.072 87.368H85.904C86.384 87.368 86.624 87.608 86.624 88.088V98.456C88.208 94.472 89.36 89.72 89.888 85.592C89.936 85.112 90.224 84.92 90.704 84.968L94.736 85.544C95.216 85.592 95.408 85.88 95.312 86.36C94.976 87.992 94.592 89.72 94.112 91.448H101.264C101.744 91.448 101.984 91.688 101.984 92.168V96.248C101.984 96.728 101.744 96.968 101.264 96.968H100.592C100.4 104.168 99.632 111.224 97.088 116.744C98.576 119.144 100.304 121.16 102.128 122.696C102.32 122.888 102.464 123.08 102.464 123.272C102.464 123.416 102.416 123.56 102.32 123.704L99.968 127.688C99.824 127.928 99.632 128.072 99.44 128.072C99.248 128.072 99.104 127.976 98.96 127.832C97.28 126.104 95.648 123.992 94.352 121.64C93.008 123.944 91.328 126.056 89.312 127.928C89.168 128.072 88.976 128.168 88.832 128.168C88.64 128.168 88.448 128.024 88.304 127.784L86.48 125.048C86.384 125.096 86.288 125.144 86.192 125.144C81.296 126.008 75.152 126.776 70.64 127.064H70.544C70.16 127.064 69.968 126.776 69.872 126.392L69.248 122.504V122.312C69.248 121.928 69.44 121.688 69.872 121.688C71.696 121.592 73.664 121.496 75.68 121.304V117.08H71.648ZM60.896 99.608C60.752 99.752 60.608 99.8 60.464 99.8C60.224 99.8 60.032 99.656 59.888 99.368L57.872 95.336C57.824 95.192 57.776 95.096 57.776 94.952C57.776 94.712 57.872 94.52 58.112 94.328C60.848 92.12 63.392 88.712 64.88 85.448C65.024 85.16 65.216 85.016 65.456 85.016C65.552 85.016 65.696 85.064 65.84 85.112L69.296 86.792C69.584 86.936 69.728 87.128 69.728 87.416C69.728 87.512 69.68 87.656 69.632 87.8C67.712 92.12 64.208 96.968 60.896 99.608ZM92.72 96.968C92.72 101.336 93.248 106.664 94.352 110.888C95.36 106.952 95.792 102.104 95.936 96.968H92.72ZM81.152 120.68C82.88 120.44 84.56 120.2 86.096 119.912H86.336C86.672 119.912 86.864 120.104 86.864 120.536V122.12C88.784 120.536 90.464 118.712 91.712 116.552C90.368 113.144 89.408 108.92 88.976 104.792C88.688 105.56 88.352 106.328 88.016 107.048C87.92 107.288 87.728 107.432 87.536 107.432C87.392 107.432 87.2 107.288 87.008 107.096L86.24 106.04V108.152C86.24 108.632 86 108.872 85.52 108.872H81.152V112.52H85.136C85.616 112.52 85.856 112.76 85.856 113.24V116.36C85.856 116.84 85.616 117.08 85.136 117.08H81.152V120.68Z" fill="#414141"/>
<path d="M103.188 69.6843L103.174 69.5362L97.7802 67.4356C94.6904 66.0182 91.6868 64.563 88.6832 63.1078C85.7038 61.5906 82.7589 59.8012 79.7866 57.7155C79.1534 56.0408 79.0026 54.4112 79.2479 52.8644C79.5173 51.2556 80.145 49.6435 81.0554 47.8558L81.1657 47.756L83.1455 42.6717L83.8973 41.1079C82.8871 42.7852 81.8769 44.4626 80.8288 46.0539C78.5741 49.4602 76.061 52.9801 73.3377 56.4896L68.2671 54.6579L68.2507 52.8664C70.8154 49.5808 73.1699 46.2847 75.3006 42.8301C77.4933 39.3996 79.5 35.8967 81.3827 32.3455L81.4623 31.5911L81.4003 31.5669L80.7692 32.8207L75.8227 31.0373C75.4304 30.0277 75.4238 29.3111 75.6789 28.8392C75.9582 28.3053 76.1273 27.8713 76.1481 27.451L78.5142 21.3746L78.4385 21.2023L80.9254 14.816L82.1183 12.8527L83.0346 13.0667L83.3277 12.681L85.2465 13.0712L89.7646 9.90357C91.4601 8.85008 93.1282 7.5003 94.8929 5.90249L99.9014 7.71002L99.8317 9.53941C98.3013 11.0856 96.6574 12.3734 94.9377 13.4889C93.1802 14.5183 92.0636 15.3687 91.488 15.93C92.4559 16.3784 93.9577 17.106 96.0312 18.199C98.0806 19.3541 100.426 20.4817 103.058 21.7921L102.764 23.4629L102.471 23.8486L100.366 31.4548L101.031 31.2139L107.17 33.6042L111.934 35.6734L112.91 31.6981C112.463 31.3809 111.681 31.005 110.627 30.5946C109.535 30.098 108.133 29.4807 106.569 28.7289L106.687 26.7755C108.441 26.6729 109.801 26.8458 110.769 27.2941C111.823 27.7046 112.729 28.1287 113.659 28.4909L113.883 28.6495L116.578 19.3451C117.825 19.2595 118.828 19.4357 119.572 19.7254C120.292 20.0771 121.222 20.4393 122.338 20.8739C122.013 23.1752 121.512 25.1938 120.985 26.9162C120.433 28.7006 120.001 30.175 119.605 31.3772L124.282 33.4843L124.13 35.7099C122.483 35.3543 121.195 34.9954 120.327 34.6574L118.9 34.1021L117.813 38.1773L119.736 38.9257L119.908 38.85L126.48 41.4093L126.713 43.9279C124.212 43.3824 122.156 42.7958 120.582 42.2542C119.007 41.7126 117.829 41.2539 117.023 40.94L116.999 41.002L116.412 43.0585C117.803 45.1711 119.208 47.4318 120.454 49.9164C121.7 52.4009 123.598 54.4965 126.257 56.1031L126.101 57.9704C124.606 57.9594 123.517 57.8211 122.797 57.4693C122.115 57.2038 121.457 56.8762 120.775 56.6106C118.839 55.714 117.369 54.3559 116.363 52.5364C115.472 50.9753 114.956 49.9174 114.666 49.3763C114.176 51.1849 113.724 53.0795 113.248 55.0362C112.713 57.3271 111.968 59.6075 111.074 61.9016L109.447 64.9809L104.438 63.1734C104.218 62.088 104.236 61.3094 104.453 60.7514C104.732 60.2175 104.95 59.6595 105.119 59.2254L106.208 56.7936L108.931 46.5005C108.342 46.9136 107.667 47.3646 106.991 47.8157C105.592 48.8417 103.917 49.4749 101.919 49.8392L97.5786 48.1491L97.4244 46.1611C100.209 45.246 102.607 44.0377 104.744 42.5848C106.818 41.1077 108.883 39.8408 110.998 38.8082L111.119 38.4982L99.8417 33.5355L98.6098 37.9827L97.4964 39.1915L92.6119 37.4322C92.1257 38.314 91.6533 39.3439 90.9981 40.6597C90.5498 41.6276 90.1876 42.5577 89.7393 43.5256L92.8972 38.9L98.0676 40.842L97.9255 42.8574L94.1332 48.3784C95.122 48.4064 95.9385 48.5101 96.5344 48.8136C97.2784 49.1033 98.1223 49.5033 99.1764 49.9138C99.1824 51.9155 99.1368 53.6829 99.0775 55.3021C99.0182 56.9213 98.8865 58.7266 98.8064 60.7661C97.4351 60.8034 96.3465 60.6651 95.6025 60.3754C94.8826 60.0236 94.0145 59.6856 93.0845 59.3234C92.8266 58.152 92.7443 57.263 92.8376 56.6567C92.893 55.9643 92.9139 55.544 93.0105 55.2959L89.6727 53.782C88.6428 53.3095 87.451 52.7027 86.2455 51.9476L85.1936 54.4656L85.4196 57.5526C87.7686 59.0386 90.4139 60.4971 93.2693 61.966C96.1489 63.373 99.0285 64.7799 101.994 66.149L107.885 68.4427L109.535 69.1566C110.833 69.3053 112.304 69.3783 113.837 69.4754C115.408 69.6587 117.193 70.2108 119.29 71.2418L119.458 73.3779C117.643 73.4564 116.296 73.4317 115.269 73.3175C114.304 73.2275 113.254 73.1754 112.117 73.1611L103.188 69.6843ZM85.5523 30.2561L85.6006 30.1321L87.012 25.0407L84.5149 23.5685L82.4626 28.8388L85.5523 30.2561ZM92.5952 51.7782C92.8432 51.8748 92.943 51.985 93.067 52.0333L93.2921 49.6218L92.0234 51.4127C91.8374 51.3403 91.9993 51.4747 92.5952 51.7782ZM91.2632 33.194L93.1991 34.0906L94.6346 28.9372C94.0902 28.868 93.7182 28.7232 93.4082 28.6025C92.9983 28.3715 92.7503 28.2749 92.6263 28.2266L91.2632 33.194ZM93.6854 25.1401L95.3145 26.2743L96.5222 21.8891L94.8964 21.1132L94.5343 22.0432L93.6854 25.1401ZM86.8656 21.1992C87.5613 21.6129 87.9092 21.8198 87.9712 21.8439L89.1855 18.1753L87.0017 17.1821L85.5739 20.482C85.6359 20.5062 86.1078 20.7613 86.8656 21.1992ZM131.924 79.8743C131.683 79.2093 131.58 78.7407 131.676 78.4927L132.111 77.3766L141.582 61.8566C144.661 56.7004 147.395 51.6957 150.005 46.6427C148.194 45.7944 146.764 44.8808 144.863 43.712C142.962 42.5432 140.64 41.3536 138.418 40.2743L138.709 38.2451C140.07 38.418 141.568 38.7873 142.622 39.1978L145.846 40.4533L151.485 43.5771L159.077 29.3965L164.334 31.3006C164.537 31.8795 164.616 32.4101 164.519 32.6581L164.085 33.7742L157.457 46.7598C160.509 48.091 163.313 49.3256 166.723 50.6535C170.171 52.0676 173.757 53.6781 177.012 55.5882L176.608 57.3589L169.38 72.2529C166.966 77.1682 164.046 82.1004 160.692 86.8637L155.311 84.9113L155.395 83.2301C158.404 78.6182 161.142 73.9718 163.532 69.1186C165.921 64.2653 168.142 59.8461 170.263 55.3165L156.047 49.281C153.402 54.6062 150.534 59.7728 147.382 65.1149L137.056 81.7301L131.924 79.8743Z" fill="#414141"/>
<g clip-path="url(#clip0_810_11)">
<path fill-rule="evenodd" clip-rule="evenodd" d="M7.70237 102.996C6.60946 103.085 5.67903 101.682 5.63028 99.875C5.57746 98.0624 6.42261 96.523 7.51552 96.4389C20.6629 95.5457 34.2897 95.0675 48.4569 95.0045C62.2503 94.9467 76.5515 95.4563 91.4378 96.1131C93.2702 96.1971 95.1106 96.2602 96.9633 96.318C101.213 96.4388 105.512 96.5073 109.859 96.6544C110.879 96.728 111.671 98.1622 111.626 99.8488C111.581 101.541 110.72 102.854 109.7 102.781C104.536 102.224 99.4457 101.619 94.4118 101.283C82.1258 100.469 70.2256 100.458 58.6911 100.537C40.8755 100.658 23.9213 101.551 7.70237 102.996Z" fill="#414141"/>
<path fill-rule="evenodd" clip-rule="evenodd" d="M7.67376 120.998C6.58087 121.055 5.66269 119.768 5.62613 118.124C5.58956 116.479 6.44672 115.102 7.5396 115.045C7.5396 115.045 59.474 113.033 89.2907 111.551C91.4602 111.441 93.516 111.336 95.4214 111.203C104.071 110.593 109.714 110.002 109.714 110.002C110.734 109.949 111.591 111.15 111.624 112.685C111.66 114.215 110.86 115.502 109.84 115.555C109.84 115.555 104.181 115.54 95.5271 115.822C93.6176 115.884 91.5659 115.988 89.3963 116.103C59.5797 117.68 7.67376 120.998 7.67376 120.998Z" fill="#414141"/>
</g>
<path fill-rule="evenodd" clip-rule="evenodd" d="M52.907 35.7935L58.8479 60.7454L54.7541 61.8898L47.625 38.7201L48.2191 36.9378L52.907 35.7935ZM183.625 98.5L180.655 99.0941L157.7 100.273L157.27 97.0771L157.485 95.5295L183.41 93.163L183.625 98.5Z" fill="#414141"/>
<defs>
<clipPath id="clip0_810_11">
<rect width="119" height="28" fill="white" transform="translate(5.625 95)"/>
</clipPath>
</defs>
</svg>
